<svg xmlns="http://www.w3.org/2000/svg" version="1.1" xmlns:xlink="http://www.w3.org/1999/xlink" xmlns:svgjs="http://svgjs.dev/svgjs" width="2000" height="1836" viewBox="0 0 2000 1836"><g transform="matrix(1,0,0,1,-0.34194247526227173,0.7433198380566637)"><svg viewBox="0 0 269 247" data-background-color="#ff908b" preserveAspectRatio="xMidYMid meet" height="1836" width="2000" xmlns="http://www.w3.org/2000/svg" xmlns:xlink="http://www.w3.org/1999/xlink"><g id="tight-bounds" transform="matrix(1,0,0,1,0.04599126292276878,-0.09999999999999432)"><svg viewBox="0 0 268.90801747415446 247.2" height="247.2" width="268.90801747415446"><g><svg viewBox="0 0 395.52 363.5910335376936" height="247.2" width="268.90801747415446"><g transform="matrix(1,0,0,1,0,257.5905222963467)"><svg viewBox="0 0 395.52 106.00051124134687" height="106.00051124134687" width="395.52"><g id="textblocktransform"><svg viewBox="0 0 395.52 106.00051124134687" height="106.00051124134687" width="395.52" id="textblock"><g><rect width="75.54432" height="5.283166857599622" y="86.56581914864337" fill="#000000" data-fill-palette-color="tertiary"></rect><rect width="75.54432" height="5.283166857599622" y="86.56581914864337" x="319.97568" fill="#000000" data-fill-palette-color="tertiary"></rect></g><g><svg viewBox="0 0 395.52 58.58401418160331" height="58.58401418160331" width="395.52"><g transform="matrix(1,0,0,1,0,0)"><svg width="395.52" viewBox="1.27 -35.99 247.88 36.72" height="58.58401418160331" data-palette-color="#ffffff"><path d="M49.37 0Q49.56-0.24 49.56-0.83 49.56-1.42 49.56-1.71L49.56-1.71Q49.56-4.74 49.24-7.76 48.93-10.79 48.54-13.77L48.54-13.77Q48.24-16.5 47.88-19.43 47.51-22.36 46.97-25L46.97-25Q44.48-21.48 42.31-17.82 40.14-14.16 37.94-10.45L37.94-10.45 35.45-6.15Q35.06-5.52 34.69-4.86 34.33-4.2 33.89-3.61L33.89-3.61Q32.86-3.56 31.84-3.56 30.81-3.56 29.79-3.56L29.79-3.56Q28.76-3.56 27.71-3.54 26.66-3.52 25.63-3.61L25.63-3.61Q25.24-4.2 24.88-4.86 24.51-5.52 24.12-6.2L24.12-6.2 21.58-10.5Q19.38-14.16 17.21-17.82 15.04-21.48 12.55-25L12.55-25Q12.01-22.36 11.67-19.43 11.33-16.5 10.99-13.77L10.99-13.77Q10.6-10.79 10.28-7.76 9.96-4.74 9.96-1.71L9.96-1.71Q9.96-1.42 9.96-0.83 9.96-0.24 10.21 0L10.21 0 1.27 0Q1.56-0.29 1.86-1.49 2.15-2.69 2.42-4.35 2.69-6.01 2.91-7.91 3.13-9.81 3.3-11.55 3.47-13.28 3.59-14.6 3.71-15.92 3.76-16.41L3.76-16.41Q4.1-20.21 4.52-24.12 4.93-28.03 4.93-31.84L4.93-31.84Q4.93-32.13 4.93-32.79 4.93-33.45 4.83-34.11 4.74-34.77 4.52-35.3 4.3-35.84 3.91-35.99L3.91-35.99 15.82-35.99Q15.58-35.84 15.58-35.5L15.58-35.5Q15.58-34.62 16.46-32.67 17.33-30.71 18.7-28.2 20.07-25.68 21.75-22.92 23.44-20.17 25-17.65 26.56-15.14 27.86-13.13 29.15-11.13 29.79-10.21L29.79-10.21Q30.37-11.13 31.67-13.13 32.96-15.14 34.55-17.65 36.13-20.17 37.79-22.95 39.45-25.73 40.82-28.22 42.19-30.71 43.07-32.67 43.95-34.62 43.95-35.5L43.95-35.5Q43.95-35.84 43.75-35.99L43.75-35.99 55.66-35.99Q55.22-35.84 55-35.3 54.79-34.77 54.69-34.11 54.59-33.45 54.59-32.79 54.59-32.13 54.59-31.84L54.59-31.84Q54.59-28.03 55-24.12 55.42-20.21 55.81-16.41L55.81-16.41Q55.86-15.92 55.96-14.6 56.05-13.28 56.23-11.55 56.4-9.81 56.62-7.91 56.84-6.01 57.1-4.35 57.37-2.69 57.67-1.49 57.96-0.29 58.3 0L58.3 0 49.37 0ZM76.85 0.73L76.85 0.73Q74.46 0.73 71.77 0.1 69.09-0.54 66.82-1.88 64.55-3.22 63.06-5.27 61.57-7.32 61.57-10.16L61.57-10.16Q61.57-13.62 62.94-16.36 64.3-19.09 66.6-20.97 68.89-22.85 71.92-23.85 74.95-24.85 78.27-24.85L78.27-24.85Q80.91-24.85 82.96-24 85.01-23.14 86.37-21.61 87.74-20.07 88.45-17.97 89.16-15.87 89.16-13.33L89.16-13.33Q89.16-10.89 88.43-8.64L88.43-8.64 68.06-8.64Q68.55-7.18 69.6-6.25 70.65-5.32 71.99-4.81 73.34-4.3 74.83-4.1 76.32-3.91 77.63-3.91L77.63-3.91Q78.46-3.91 79.86-4.03 81.25-4.15 82.71-4.42 84.18-4.69 85.47-5.08 86.77-5.47 87.4-6.05L87.4-6.05 89.79-1.86Q86.57-0.63 83.44 0.05 80.32 0.73 76.85 0.73ZM76.85-20.26L76.85-20.26Q75.39-20.26 73.95-19.68 72.51-19.09 71.34-18.14 70.16-17.19 69.28-15.89 68.41-14.6 68.02-13.23L68.02-13.23 81.98-13.23Q82.13-14.7 82-15.99 81.88-17.29 81.35-18.24 80.81-19.19 79.73-19.73 78.66-20.26 76.85-20.26ZM107.86 0.73L107.86 0.73Q105.46 0.73 102.78 0.1 100.09-0.54 97.82-1.88 95.55-3.22 94.06-5.27 92.57-7.32 92.57-10.16L92.57-10.16Q92.57-13.62 93.94-16.36 95.31-19.09 97.6-20.97 99.9-22.85 102.92-23.85 105.95-24.85 109.27-24.85L109.27-24.85Q111.91-24.85 113.96-24 116.01-23.14 117.38-21.61 118.75-20.07 119.45-17.97 120.16-15.87 120.16-13.33L120.16-13.33Q120.16-10.89 119.43-8.64L119.43-8.64 99.07-8.64Q99.56-7.18 100.61-6.25 101.66-5.32 103-4.81 104.34-4.3 105.83-4.1 107.32-3.91 108.64-3.91L108.64-3.91Q109.47-3.91 110.86-4.03 112.25-4.15 113.72-4.42 115.18-4.69 116.47-5.08 117.77-5.47 118.4-6.05L118.4-6.05 120.8-1.86Q117.57-0.63 114.45 0.05 111.32 0.73 107.86 0.73ZM107.86-20.26L107.86-20.26Q106.39-20.26 104.95-19.68 103.51-19.09 102.34-18.14 101.17-17.19 100.29-15.89 99.41-14.6 99.02-13.23L99.02-13.23 112.98-13.23Q113.13-14.7 113.01-15.99 112.89-17.29 112.35-18.24 111.81-19.19 110.74-19.73 109.66-20.26 107.86-20.26ZM136.27-17.63Q136.17-15.14 136.08-12.62 135.98-10.11 135.98-7.62L135.98-7.62Q135.98-6.79 136.32-6.2 136.66-5.62 137.22-5.25 137.79-4.88 138.49-4.74 139.2-4.59 139.93-4.59L139.93-4.59Q140.86-4.59 141.76-4.74 142.67-4.88 143.55-5.13L143.55-5.13 142.77 0.1Q139.93 0.1 137.44-0.07 134.95-0.24 133.1-1.12 131.24-2 130.17-3.93 129.09-5.86 129.09-9.38L129.09-9.38Q129.09-11.43 129.22-13.5 129.34-15.58 129.53-17.63L129.53-17.63 122.31-17.58 122.65-22.36Q124.41-22.22 126.21-22.19 128.02-22.17 129.83-22.17L129.83-22.17Q129.92-23.58 129.97-24.93 130.02-26.27 130.02-27.69L130.02-27.69Q130.02-27.98 130.02-28.86 130.02-29.74 129.92-30.69 129.83-31.64 129.63-32.42 129.44-33.2 129.09-33.35L129.09-33.35 138.08-33.2Q137.88-33.2 137.79-32.91 137.69-32.62 137.59-32.47L137.59-32.47Q137.3-31.54 137.13-30.22 136.96-28.91 136.83-27.47 136.71-26.03 136.64-24.68 136.56-23.34 136.52-22.31L136.52-22.31Q138.18-22.41 139.89-22.49 141.59-22.56 143.25-22.95L143.25-22.95 143.25-17.68 136.27-17.63ZM176.75-17.63Q176.65-15.14 176.55-12.62 176.45-10.11 176.45-7.62L176.45-7.62Q176.45-6.79 176.79-6.2 177.14-5.62 177.7-5.25 178.26-4.88 178.97-4.74 179.68-4.59 180.41-4.59L180.41-4.59Q181.34-4.59 182.24-4.74 183.14-4.88 184.02-5.13L184.02-5.13 183.24 0.1Q180.41 0.1 177.92-0.07 175.43-0.24 173.57-1.12 171.72-2 170.64-3.93 169.57-5.86 169.57-9.38L169.57-9.38Q169.57-11.43 169.69-13.5 169.81-15.58 170.01-17.63L170.01-17.63 162.78-17.58 163.12-22.36Q164.88-22.22 166.69-22.19 168.49-22.17 170.3-22.17L170.3-22.17Q170.4-23.58 170.45-24.93 170.5-26.27 170.5-27.69L170.5-27.69Q170.5-27.98 170.5-28.86 170.5-29.74 170.4-30.69 170.3-31.64 170.1-32.42 169.91-33.2 169.57-33.35L169.57-33.35 178.55-33.2Q178.36-33.2 178.26-32.91 178.16-32.62 178.06-32.47L178.06-32.47Q177.77-31.54 177.6-30.22 177.43-28.91 177.31-27.47 177.18-26.03 177.11-24.68 177.04-23.34 176.99-22.31L176.99-22.31Q178.65-22.41 180.36-22.49 182.07-22.56 183.73-22.95L183.73-22.95 183.73-17.68 176.75-17.63ZM206.72-23.44L206.72-23.44Q208.87-23.44 210.78-22.83 212.68-22.22 214.12-21 215.56-19.78 216.39-18.02 217.22-16.26 217.22-13.96L217.22-13.96Q217.22-13.43 217.2-12.3 217.17-11.18 217.17-9.79 217.17-8.4 217.17-6.88 217.17-5.37 217.22-4.05 217.27-2.73 217.37-1.76 217.47-0.78 217.66-0.49L217.66-0.49 209.31-0.49Q210.04-2.59 210.48-5.03 210.92-7.47 210.92-9.72L210.92-9.72Q210.92-11.52 210.56-13.13 210.19-14.75 209.34-15.94 208.48-17.14 207.09-17.82 205.7-18.51 203.65-18.51L203.65-18.51Q201.5-18.51 199.52-17.43 197.54-16.36 196.18-14.75L196.18-14.75Q196.13-13.18 196.13-11.6 196.13-10.01 196.13-8.4L196.13-8.4Q196.13-8.15 196.13-7.42 196.13-6.69 196.13-5.71 196.13-4.74 196.18-3.66 196.23-2.59 196.27-1.66 196.32-0.73 196.42-0.07 196.52 0.59 196.66 0.73L196.66 0.73 188.02 0.73Q188.22 0.49 188.39-0.93 188.56-2.34 188.73-4.32 188.9-6.3 189.05-8.62 189.19-10.94 189.29-13.01 189.39-15.09 189.46-16.65 189.54-18.21 189.58-18.75L189.58-18.75Q189.73-22.56 189.73-26.46L189.73-26.46Q189.73-26.71 189.73-27.42 189.73-28.13 189.71-29.08 189.68-30.03 189.63-31.08 189.58-32.13 189.49-33.03 189.39-33.94 189.22-34.57 189.05-35.21 188.8-35.3L188.8-35.3 198.13-35.21Q197.89-35.21 197.74-34.81 197.59-34.42 197.54-34.28L197.54-34.28Q197.15-33.01 197.03-31.62 196.91-30.22 196.81-28.91L196.81-28.91Q196.62-26.81 196.52-24.73 196.42-22.66 196.32-20.56L196.32-20.56Q198.52-22.12 201.3-22.78 204.09-23.44 206.72-23.44ZM236.21 0.73L236.21 0.73Q233.82 0.73 231.13 0.1 228.45-0.54 226.18-1.88 223.91-3.22 222.42-5.27 220.93-7.32 220.93-10.16L220.93-10.16Q220.93-13.62 222.3-16.36 223.66-19.09 225.96-20.97 228.25-22.85 231.28-23.85 234.31-24.85 237.63-24.85L237.63-24.85Q240.27-24.85 242.32-24 244.37-23.14 245.73-21.61 247.1-20.07 247.81-17.97 248.52-15.87 248.52-13.33L248.52-13.33Q248.52-10.89 247.79-8.64L247.79-8.64 227.42-8.64Q227.91-7.18 228.96-6.25 230.01-5.32 231.35-4.81 232.7-4.3 234.19-4.1 235.68-3.91 236.99-3.91L236.99-3.91Q237.82-3.91 239.22-4.03 240.61-4.15 242.07-4.42 243.54-4.69 244.83-5.08 246.13-5.47 246.76-6.05L246.76-6.05 249.15-1.86Q245.93-0.63 242.8 0.05 239.68 0.73 236.21 0.73ZM236.21-20.26L236.21-20.26Q234.75-20.26 233.31-19.68 231.87-19.09 230.7-18.14 229.52-17.19 228.64-15.89 227.77-14.6 227.38-13.23L227.38-13.23 241.34-13.23Q241.49-14.7 241.36-15.99 241.24-17.29 240.71-18.24 240.17-19.19 239.09-19.73 238.02-20.26 236.21-20.26Z" opacity="1" transform="matrix(1,0,0,1,0,0)" fill="#000000" class="wordmark-text-0" data-fill-palette-color="primary" id="text-0"></path></svg></g></svg></g><g transform="matrix(1,0,0,1,75.54432,72.4142939135395)"><svg viewBox="0 0 244.43135999999998 33.586217327807375" height="33.586217327807375" width="244.43135999999998"><g transform="matrix(1,0,0,1,8,0)"><svg width="228.43135999999998" viewBox="0.34 -35.79 247.39 36.38" height="33.586217327807375" data-palette-color="#ffffff"><path d="M25.44-34.33L25.44-34.33 24.07-24.02Q23.36-24.22 22.66-24.29 21.95-24.37 21.24-24.37L21.24-24.37Q19.43-24.37 17.8-23.89 16.16-23.41 14.9-22.44 13.65-21.46 12.9-20 12.16-18.53 12.16-16.55L12.16-16.55Q12.16-15.28 12.56-14.36 12.96-13.43 13.7-12.82 14.43-12.21 15.43-11.91 16.43-11.62 17.63-11.62L17.63-11.62Q18.53-11.62 19.51-11.82 20.48-12.01 21.44-12.33 22.39-12.65 23.29-13.06 24.19-13.48 24.95-13.92L24.95-13.92 23.97-2.44Q23.02-1.95 21.91-1.57 20.8-1.2 19.63-0.92 18.46-0.63 17.29-0.49 16.11-0.34 15.04-0.34L15.04-0.34Q11.94-0.34 9.25-1.49 6.57-2.64 4.59-4.64 2.61-6.64 1.48-9.36 0.34-12.08 0.34-15.23L0.34-15.23Q0.34-19.41 1.54-23.11 2.73-26.81 5.05-29.59 7.37-32.37 10.8-33.98 14.23-35.6 18.7-35.6L18.7-35.6Q20.39-35.6 22.16-35.33 23.93-35.06 25.44-34.33ZM56.76-18.7L56.76-18.7Q56.76-16.48 56.25-14.42 55.73-12.35 54.77-10.55 53.81-8.74 52.43-7.24 51.05-5.74 49.33-4.66 47.6-3.59 45.58-2.99 43.55-2.39 41.28-2.39L41.28-2.39Q39.08-2.39 37.09-2.95 35.1-3.52 33.37-4.53 31.64-5.54 30.23-6.97 28.83-8.4 27.84-10.14 26.85-11.89 26.3-13.89 25.75-15.89 25.75-18.07L25.75-18.07Q25.75-20.19 26.27-22.23 26.78-24.27 27.74-26.07 28.71-27.88 30.08-29.39 31.44-30.91 33.14-32.01 34.84-33.11 36.81-33.72 38.79-34.33 40.99-34.33L40.99-34.33Q44.53-34.33 47.45-33.23 50.36-32.13 52.43-30.09 54.49-28.05 55.62-25.16 56.76-22.27 56.76-18.7ZM45.92-18.07L45.92-18.07Q45.92-19.12 45.62-20.1 45.31-21.09 44.72-21.86 44.14-22.63 43.27-23.11 42.4-23.58 41.28-23.58L41.28-23.58Q40.13-23.58 39.23-23.17 38.33-22.75 37.68-22.03 37.03-21.31 36.69-20.35 36.35-19.38 36.35-18.31L36.35-18.31Q36.35-17.29 36.64-16.26 36.94-15.23 37.52-14.4 38.11-13.57 38.97-13.06 39.84-12.55 40.99-12.55L40.99-12.55Q42.14-12.55 43.05-13 43.97-13.45 44.6-14.22 45.24-14.99 45.58-15.99 45.92-16.99 45.92-18.07ZM87.57-34.38L87.57-34.38Q86.47-25.78 85.69-17.27 84.91-8.76 84.2-0.15L84.2-0.15 74.19 0.59 74.63-3.17Q74.14-2.61 73.49-2.2 72.85-1.78 72.11-1.53 71.38-1.27 70.6-1.16 69.82-1.05 69.11-1.07L69.11-1.07Q67.45-1.1 65.99-1.72 64.52-2.34 63.3-3.38 62.08-4.42 61.1-5.8 60.13-7.18 59.46-8.7 58.78-10.23 58.43-11.82 58.08-13.4 58.08-14.89L58.08-14.89Q58.08-17.09 58.16-19.45 58.25-21.8 58.47-24.17 58.69-26.54 59.04-28.86 59.39-31.18 59.93-33.3L59.93-33.3Q62.91-33.15 65.91-33.03 68.92-32.91 71.89-32.96L71.89-32.96Q71.33-30.83 70.78-28.7 70.23-26.56 69.79-24.4 69.36-22.24 69.09-20.07 68.82-17.9 68.82-15.67L68.82-15.67Q68.82-15.16 68.87-14.21 68.92-13.26 69.12-12.33 69.33-11.4 69.76-10.71 70.19-10.01 70.97-10.01L70.97-10.01Q71.89-10.01 72.63-10.8 73.36-11.6 73.92-12.94 74.48-14.28 74.89-16.04 75.29-17.8 75.57-19.71 75.85-21.63 76.02-23.58 76.19-25.54 76.28-27.26 76.36-28.98 76.4-30.35 76.44-31.71 76.44-32.47L76.44-32.47Q76.44-32.96 76.41-33.42 76.39-33.89 76.34-34.38L76.34-34.38Q77.92-34.33 79.49-34.3 81.05-34.28 82.64-34.28L82.64-34.28Q83.86-34.28 85.09-34.29 86.32-34.3 87.57-34.38ZM119.33-12.35L119.33-12.35Q119.33-9.59 119.27-6.9 119.21-4.2 119.08-1.46L119.08-1.46 105.02-1.71Q105.75-6.03 106.29-10.34 106.83-14.65 106.83-19.04L106.83-19.04Q106.83-19.36 106.8-20.07 106.78-20.78 106.71-21.67 106.63-22.56 106.5-23.5 106.36-24.44 106.13-25.22 105.9-26 105.57-26.5 105.24-27 104.78-27L104.78-27Q103.95-27 103.37-26.51 102.8-26.03 102.42-25.26 102.04-24.49 101.82-23.54 101.6-22.58 101.49-21.63 101.38-20.68 101.35-19.84 101.31-18.99 101.31-18.46L101.31-18.46Q101.19-14.14 101.12-9.88 101.04-5.62 100.92-1.27L100.92-1.27 88.47-0.73Q88.96-9.35 89.41-17.87 89.86-26.39 90.13-35.01L90.13-35.01 101.65-35.6 101.56-31.69Q102.24-32.52 103.03-33.25 103.83-33.98 104.73-34.51 105.63-35.03 106.65-35.34 107.66-35.64 108.78-35.64L108.78-35.64Q110.86-35.64 112.42-34.96 113.98-34.28 115.1-33.11 116.23-31.93 116.98-30.33 117.74-28.74 118.21-26.93 118.67-25.12 118.91-23.16 119.16-21.19 119.24-19.29 119.33-17.38 119.33-15.6 119.33-13.82 119.33-12.35ZM120.86-34.38L147.48-34.42 147.23-24.07 139.96-23.78 139.08-1.12 128.77-0.59 127.85-23.24 120.57-22.85 120.86-34.38ZM177.48-23.54L177.48-23.54Q177.48-21.63 177.15-20.08 176.82-18.53 176.11-17.24 175.4-15.94 174.28-14.84 173.16-13.75 171.57-12.74L171.57-12.74 177.38-2.39 166.39-0.24 162.63-10.64 159.61-10.55 159.17-0.39 148.67-0.39Q148.79-5.96 148.9-11.47 149.01-16.99 149.16-22.56L149.16-22.56Q149.21-25.37 149.26-28.13 149.3-30.88 149.45-33.69L149.45-33.69Q151.16-34.33 152.82-34.74 154.48-35.16 156.15-35.39 157.82-35.62 159.55-35.71 161.27-35.79 163.07-35.79L163.07-35.79Q165.86-35.79 168.46-35.02 171.06-34.25 173.06-32.71 175.06-31.18 176.27-28.88 177.48-26.59 177.48-23.54ZM166.54-22.75L166.54-22.75Q166.54-23.78 166.26-24.63 165.98-25.49 165.43-26.11 164.88-26.73 164.06-27.09 163.24-27.44 162.15-27.44L162.15-27.44Q161.66-27.44 161.19-27.38 160.73-27.32 160.29-27.2L160.29-27.2 159.9-18.12 160.49-18.12Q161.54-18.12 162.62-18.38 163.71-18.65 164.57-19.21 165.44-19.78 165.99-20.65 166.54-21.53 166.54-22.75ZM178.92-33.69L191.9-34.38 190.19-1.12 179.89-0.59 178.92-33.69ZM221.13-19.73L221.13-19.73Q221.13-17.6 220.83-15.48L220.83-15.48Q216.66-15.21 212.53-14.61 208.41-14.01 204.28-13.43L204.28-13.43Q204.91-11.67 206.27-10.62 207.62-9.57 209.5-9.57L209.5-9.57Q210.48-9.57 211.64-9.94 212.8-10.3 213.95-10.85 215.09-11.4 216.14-12.04 217.19-12.67 217.95-13.18L217.95-13.18 216.78-2.1Q215.83-1.37 214.72-0.85 213.61-0.34 212.41-0.02 211.21 0.29 209.99 0.44 208.77 0.59 207.6 0.59L207.6 0.59Q205.18 0.59 203.18-0.07 201.18-0.73 199.56-1.92 197.93-3.1 196.71-4.71 195.49-6.32 194.68-8.23 193.88-10.13 193.46-12.26 193.05-14.38 193.05-16.55L193.05-16.55Q193.05-18.82 193.46-21.09 193.88-23.36 194.72-25.46 195.56-27.56 196.85-29.36 198.13-31.15 199.84-32.5 201.55-33.84 203.71-34.59 205.87-35.35 208.48-35.35L208.48-35.35Q210.65-35.35 212.45-34.75 214.24-34.16 215.64-33.09 217.05-32.03 218.09-30.57 219.12-29.1 219.79-27.36 220.47-25.61 220.8-23.67 221.13-21.73 221.13-19.73ZM211.36-20.46L211.36-21Q211.36-21.68 211.21-22.4 211.07-23.12 210.74-23.71 210.41-24.29 209.87-24.67 209.33-25.05 208.53-25.05L208.53-25.05Q207.55-25.05 206.81-24.52 206.06-24 205.52-23.21 204.99-22.41 204.65-21.48 204.3-20.56 204.13-19.78L204.13-19.78 211.36-20.46ZM247.73-12.5L247.73-12.5Q247.73-9.16 246.57-6.73 245.41-4.3 243.4-2.72 241.39-1.15 238.69-0.4 235.99 0.34 232.89 0.34L232.89 0.34Q231.69 0.34 230.27 0.02 228.84-0.29 227.37-0.77 225.91-1.25 224.55-1.79 223.2-2.34 222.15-2.83L222.15-2.83 223.22-12.4Q225.3-11.16 227.82-10.51 230.35-9.86 232.79-9.86L232.79-9.86Q233.26-9.86 233.92-9.9 234.57-9.94 235.17-10.12 235.77-10.3 236.19-10.67 236.6-11.04 236.6-11.72L236.6-11.72Q236.6-12.18 236.31-12.51 236.02-12.84 235.55-13.05 235.09-13.26 234.5-13.37 233.92-13.48 233.35-13.53 232.79-13.57 232.3-13.57 231.82-13.57 231.52-13.57L231.52-13.57Q229.42-13.57 227.7-14.23 225.98-14.89 224.75-16.1 223.52-17.31 222.83-19.03 222.15-20.75 222.15-22.85L222.15-22.85Q222.15-25.73 223.31-28.02 224.47-30.3 226.41-31.9 228.35-33.5 230.86-34.35 233.38-35.21 236.06-35.21L236.06-35.21Q237.26-35.21 238.53-35.12 239.8-35.03 241.06-34.81 242.31-34.59 243.51-34.25 244.71-33.91 245.78-33.4L245.78-33.4 244.85-23.49Q243.19-24.05 241.37-24.43 239.56-24.8 237.82-24.8L237.82-24.8Q237.5-24.8 237-24.79 236.5-24.78 235.95-24.72 235.4-24.66 234.84-24.54 234.28-24.41 233.84-24.21 233.4-24 233.13-23.66 232.87-23.32 232.89-22.85L232.89-22.85Q232.91-22.31 233.29-22.02 233.67-21.73 234.27-21.59 234.87-21.46 235.59-21.46 236.31-21.46 237.02-21.5 237.72-21.53 238.33-21.57 238.94-21.61 239.34-21.58L239.34-21.58Q241.29-21.46 242.85-20.75 244.41-20.04 245.5-18.87 246.59-17.7 247.16-16.08 247.73-14.45 247.73-12.5Z" opacity="1" transform="matrix(1,0,0,1,0,0)" fill="#000000" class="slogan-text-1" data-fill-palette-color="secondary" id="text-1"></path></svg></g></svg></g></svg></g></svg></g><g transform="matrix(1,0,0,1,82.79501858376281,0)"><svg viewBox="0 0 229.92996283247436 229.92996283247436" height="229.92996283247436" width="229.92996283247436"><g><svg></svg></g><g id="icon-0"><svg viewBox="0 0 229.92996283247436 229.92996283247436" height="229.92996283247436" width="229.92996283247436"><g><path d="M0 114.965c0-63.493 51.472-114.965 114.965-114.965 63.493 0 114.965 51.472 114.965 114.965 0 63.493-51.472 114.965-114.965 114.965-63.493 0-114.965-51.472-114.965-114.965zM114.965 224.647c60.576 0 109.682-49.106 109.682-109.682 0-60.576-49.106-109.682-109.682-109.682-60.576 0-109.682 49.106-109.682 109.682 0 60.576 49.106 109.682 109.682 109.682z" data-fill-palette-color="tertiary" fill="#000000" stroke="transparent"></path></g><g transform="matrix(1,0,0,1,47.75377107239315,46.050180178511695)"><svg viewBox="0 0 134.42242068768806 137.82960247545097" height="137.82960247545097" width="134.42242068768806"><g><svg xmlns="http://www.w3.org/2000/svg" xmlns:xlink="http://www.w3.org/1999/xlink" version="1.1" x="0" y="0" viewBox="1.236999958464597 0 97.52700004153542 99.999" enable-background="new 0 0 100 100" xml:space="preserve" height="137.82960247545097" width="134.42242068768806" class="icon-cg-0" data-fill-palette-color="accent" id="cg-0"><g fill="#ffffff" data-fill-palette-color="accent"><g fill="#ffffff" data-fill-palette-color="accent"><path d="M81.111 17.61l-5.547 4.876 6.451-0.537 1.101 2.16 6.661 0.871 5.299 0.885c-0.794-1.438-1.657-2.825-2.585-4.168l-1.628-0.095-3.493-3.949 0.823 2.82-2.283 1.88V21.01L81.111 17.61z" fill="#000000" data-fill-palette-color="accent"></path><path d="M42.964 99.335l0.958-0.058 5.847-7.053 3.03 7.775c21.479-0.648 39.534-14.794 45.965-34.271l-3.851 6.342-6.649 1.613c0 0-4.438-12.295-4.236-12.899 0.205-0.604-0.803-13.91-1.408-14.313-0.602-0.403-11.893-1.408-11.893-1.408l-4.631-12.497 7.852-9.676-2.211-4.834 3.828-3.026 5.748-4.943c-1.305-0.983-2.66-1.897-4.061-2.752l1.618 3.529-3.039 1.707-2.688-1.099 1.062-2.397 0.416-2.842 0.558-0.159c-1.771-0.964-3.617-1.786-5.512-2.535l-1.962-0.195 0.563-0.32c-1.412-0.509-2.852-0.953-4.314-1.34l-5.521 1.66-2.22 3.022-2.614-0.605 0.438-5.619C53.116 0.09 52.207 0 51.279 0 50.27 0 49.287 0.092 48.3 0.15l0.258 0.167L46.54 3.342h-3.426L39.486 1.93l-9.272 4.64 3.627 2.818 5.04-3.63h6.452l2.417 5.845-8.062 5.242-7.654 5.04-4.237 4.431L27.6 30.351l-6.856-3.026-4.838 2.417 1.614 5.443 4.435-1.816 5.439 8.466 5.842-2.619 12.501 6.649 9.875 8.062-4.027 10.08c0 0-8.667 12.698-8.47 11.892 0.197-0.807-3.022 5.439-3.022 5.439l2.014 6.447-6.045-3.824L32.232 63.4l-6.654-10.276 1.417-9.676-9.273-5.646-6.65-2.619L6.865 27.04c-3.576 6.89-5.628 14.699-5.628 22.997C1.236 74.835 19.292 95.368 42.964 99.335zM31.223 35.992l-6.25-3.426 9.273 1.412L31.223 35.992z" fill="#000000" data-fill-palette-color="accent"></path></g></g></svg></g></svg></g></svg></g></svg></g><g></g></svg></g><defs></defs></svg><rect width="268.90801747415446" height="247.2" fill="none" stroke="none" visibility="hidden"></rect></g></svg></g></svg>